<svg width="12" height="12" viewBox="0 0 12 12" fill="none" xmlns="http://www.w3.org/2000/svg">
<path d="M6.48035 1.70202C6.43926 1.66785 6.39056 1.64407 6.33835 1.63267C6.28614 1.62127 6.23195 1.62259 6.18036 1.63652C6.12877 1.65045 6.08129 1.67658 6.04191 1.71271C6.00253 1.74883 5.97242 1.7939 5.9541 1.8441L5.03744 4.36118L4.03077 3.38577C3.99696 3.35298 3.95659 3.32772 3.91231 3.31167C3.86804 3.29562 3.82086 3.28913 3.7739 3.29263C3.72693 3.29613 3.68124 3.30955 3.63983 3.332C3.59843 3.35444 3.56225 3.38541 3.53369 3.42285C2.63119 4.60535 2.17285 5.79493 2.17285 6.95827C2.17285 7.93073 2.55916 8.86336 3.24679 9.55099C3.93443 10.2386 4.86706 10.6249 5.83952 10.6249C6.81198 10.6249 7.74461 10.2386 8.43224 9.55099C9.11988 8.86336 9.50619 7.93073 9.50619 6.95827C9.50619 4.48118 7.38994 2.45827 6.48035 1.70202ZM8.16827 7.34743C8.08183 7.83023 7.84956 8.27495 7.5027 8.62172C7.15585 8.9685 6.71108 9.20069 6.22827 9.28702C6.20996 9.29015 6.19142 9.29169 6.17285 9.2916C6.08924 9.29158 6.00869 9.26013 5.94717 9.2035C5.88566 9.14687 5.84767 9.06919 5.84075 8.98586C5.83383 8.90253 5.85847 8.81965 5.9098 8.75364C5.96113 8.68764 6.03539 8.64333 6.11785 8.62952C6.80827 8.51327 7.3941 7.92743 7.51118 7.23577C7.52599 7.14858 7.57483 7.07084 7.64695 7.01966C7.71908 6.96848 7.80858 6.94804 7.89577 6.96285C7.98296 6.97766 8.06069 7.02649 8.11188 7.09862C8.16306 7.17074 8.18349 7.26024 8.16868 7.34743H8.16827Z" fill="#D11212"/>
</svg>
