<svg width="20" height="20" viewBox="0 0 20 20" fill="none" xmlns="http://www.w3.org/2000/svg">
<path d="M12.0127 16.2278H15.735C15.8046 16.2278 15.8629 16.2043 15.9098 16.1573C15.9568 16.1103 15.9803 16.052 15.9803 15.9824C15.9803 15.9128 15.9568 15.8545 15.9098 15.8075C15.8629 15.7605 15.8046 15.737 15.735 15.737H12.0127L13.704 14.0458C13.7526 13.9971 13.7766 13.9402 13.776 13.875C13.7754 13.8098 13.7497 13.7518 13.699 13.701C13.6482 13.6536 13.5907 13.6291 13.5265 13.6274C13.4624 13.6257 13.4049 13.6502 13.3541 13.701L11.2798 15.7754C11.2491 15.806 11.2275 15.8383 11.215 15.8723C11.2024 15.9063 11.1961 15.943 11.1961 15.9824C11.1961 16.0218 11.2024 16.0585 11.215 16.0925C11.2275 16.1265 11.2491 16.1588 11.2798 16.1894L13.3541 18.2638C13.3994 18.3091 13.4555 18.3323 13.5225 18.3333C13.5894 18.3343 13.6482 18.3112 13.699 18.2638C13.7497 18.213 13.775 18.1547 13.775 18.0889C13.775 18.023 13.7497 17.9647 13.699 17.914L12.0127 16.2278Z" fill="white" stroke="white" stroke-width="0.558164"/>
<path d="M9.59735 8.73939C9.51761 8.73142 9.42193 8.73142 9.33421 8.73939C7.43646 8.6756 5.92941 7.12072 5.92941 5.20701C5.92144 3.25344 7.50822 1.66666 9.46179 1.66666C11.4154 1.66666 13.0022 3.25344 13.0022 5.20701C13.0022 7.12072 11.4871 8.6756 9.59735 8.73939Z" stroke="white" stroke-width="1.19607" stroke-linecap="round" stroke-linejoin="round"/>
<path d="M9.46178 17.4627C8.01056 17.4627 6.5673 17.0959 5.46692 16.3623C3.53727 15.0706 3.53727 12.9655 5.46692 11.6817C7.65971 10.2145 11.2559 10.2145 13.4487 11.6817" stroke="white" stroke-width="1.19607" stroke-linecap="round" stroke-linejoin="round"/>
</svg>
