<svg width="20" height="20" viewBox="0 0 20 20" fill="none" xmlns="http://www.w3.org/2000/svg">
<path d="M15.1637 16.2278H11.4415C11.3719 16.2278 11.3136 16.2043 11.2666 16.1573C11.2196 16.1103 11.1961 16.052 11.1961 15.9824C11.1961 15.9128 11.2196 15.8545 11.2666 15.8075C11.3136 15.7605 11.3719 15.737 11.4415 15.737H15.1637L13.4725 14.0458C13.4239 13.9971 13.3998 13.9402 13.4004 13.875C13.4011 13.8098 13.4268 13.7518 13.4775 13.701C13.5283 13.6536 13.5857 13.6291 13.6499 13.6274C13.7141 13.6257 13.7716 13.6502 13.8223 13.701L15.8967 15.7754C15.9273 15.806 15.9489 15.8383 15.9615 15.8723C15.9741 15.9063 15.9804 15.943 15.9804 15.9824C15.9804 16.0218 15.9741 16.0585 15.9615 16.0925C15.9489 16.1265 15.9273 16.1588 15.8967 16.1894L13.8223 18.2638C13.777 18.3091 13.7209 18.3323 13.654 18.3333C13.5871 18.3343 13.5283 18.3112 13.4775 18.2638C13.4268 18.213 13.4014 18.1547 13.4014 18.0889C13.4014 18.023 13.4268 17.9647 13.4775 17.914L15.1637 16.2278Z" fill="white" stroke="white" stroke-width="0.558164"/>
<path d="M9.59735 8.73939C9.51761 8.73142 9.42193 8.73142 9.33421 8.73939C7.43646 8.6756 5.92941 7.12072 5.92941 5.20701C5.92144 3.25344 7.50822 1.66666 9.46179 1.66666C11.4154 1.66666 13.0022 3.25344 13.0022 5.20701C13.0022 7.12072 11.4871 8.6756 9.59735 8.73939Z" stroke="white" stroke-width="1.19607" stroke-linecap="round" stroke-linejoin="round"/>
<path d="M9.46182 17.4627C8.01059 17.4627 6.56734 17.0959 5.46695 16.3623C3.5373 15.0706 3.5373 12.9655 5.46695 11.6817C7.65974 10.2145 11.2559 10.2145 13.4487 11.6817" stroke="white" stroke-width="1.19607" stroke-linecap="round" stroke-linejoin="round"/>
</svg>
