<svg width="16" height="16" viewBox="0 0 16 16" fill="none" xmlns="http://www.w3.org/2000/svg">
<path d="M6.16602 13.333V13.9997C6.16602 14.644 6.68835 15.1663 7.33268 15.1663H8.66602C9.31035 15.1663 9.83268 14.644 9.83268 13.9997V13.333H6.16602Z" fill="#0B0C0E"/>
<path fill-rule="evenodd" clip-rule="evenodd" d="M2.5 6.41347C2.5 3.33902 4.95494 0.833008 8 0.833008C11.0451 0.833008 13.5 3.33902 13.5 6.41347C13.5 8.47087 12.3983 10.0143 10.8141 10.9514C10.7552 10.9863 10.7235 11.0341 10.7131 11.0759L10.5781 11.6159C10.4483 12.1353 9.9816 12.4997 9.44627 12.4997H6.48731C5.95197 12.4997 5.48532 12.1353 5.35548 11.6159L5.22048 11.0759C5.21008 11.0343 5.17837 10.9861 5.11873 10.9506C3.53099 10.0069 2.5 8.45901 2.5 6.41347ZM7.32813 9.66634C7.32813 9.29814 7.6266 8.99967 7.9948 8.99967H8.0008C8.369 8.99967 8.66747 9.29814 8.66747 9.66634C8.66747 10.0345 8.369 10.333 8.0008 10.333H7.9948C7.6266 10.333 7.32813 10.0345 7.32813 9.66634ZM7.33333 5.33301C7.33333 4.96482 7.6318 4.66634 8 4.66634C8.3682 4.66634 8.66667 4.96482 8.66667 5.33301C8.66667 5.46672 8.628 5.58937 8.56147 5.69279C8.48273 5.81514 8.3826 5.94411 8.25927 6.09738L8.19953 6.17138C8.09607 6.29929 7.97913 6.44399 7.87253 6.59045C7.62187 6.93501 7.33333 7.41194 7.33333 7.99967C7.33333 8.36787 7.6318 8.66634 8 8.66634C8.3682 8.66634 8.66667 8.36787 8.66667 7.99967C8.66667 7.85101 8.73993 7.66454 8.95067 7.37494C9.03547 7.25841 9.12693 7.14514 9.22993 7.01767L9.29807 6.93327C9.42247 6.77861 9.5622 6.60156 9.68273 6.41428C9.88353 6.10215 10 5.73016 10 5.33301C10 4.22844 9.1046 3.33301 8 3.33301C6.8954 3.33301 6 4.22844 6 5.33301C6 5.70119 6.29848 5.99967 6.66667 5.99967C7.03487 5.99967 7.33333 5.70119 7.33333 5.33301Z" fill="#0B0C0E"/>
</svg>
