<svg width="16" height="16" viewBox="0 0 16 16" fill="none" xmlns="http://www.w3.org/2000/svg">
<g clip-path="url(#clip0_1_254)">
<path fill-rule="evenodd" clip-rule="evenodd" d="M10.5983 1.53406C10.2515 1.49999 9.83018 1.49999 9.31672 1.5H6.68458C6.17112 1.49999 5.74975 1.49999 5.40303 1.53406C5.03992 1.56974 4.71974 1.64553 4.41668 1.81989C4.11356 1.99429 3.88728 2.23295 3.67428 2.52884C3.47094 2.81129 3.25978 3.17529 3.00255 3.61867L1.69541 5.87175C1.43715 6.31688 1.22514 6.68233 1.08048 7.00013C0.928938 7.33307 0.833984 7.64913 0.833984 8C0.833984 8.35087 0.928938 8.66693 1.08048 8.99987C1.22514 9.31773 1.43715 9.68313 1.69541 10.1283L3.00253 12.3813C3.25976 12.8247 3.47094 13.1887 3.67428 13.4711C3.88728 13.7671 4.11356 14.0057 4.41668 14.1801C4.71974 14.3545 5.03992 14.4303 5.40303 14.4659C5.74976 14.5 6.17114 14.5 6.68465 14.5H9.31665C9.83018 14.5 10.2515 14.5 10.5983 14.4659C10.9614 14.4303 11.2816 14.3545 11.5847 14.1801C11.8877 14.0057 12.114 13.7671 12.3271 13.4711C12.5303 13.1887 12.7415 12.8247 12.9987 12.3814L14.3059 10.1283C14.5642 9.68313 14.7762 9.31767 14.9209 8.99987C15.0724 8.66693 15.1673 8.35087 15.1673 8C15.1673 7.64913 15.0724 7.33307 14.9209 7.00013C14.7762 6.68233 14.5642 6.3169 14.3059 5.87178L12.9988 3.61867C12.7415 3.17529 12.5304 2.81129 12.3271 2.52884C12.114 2.23295 11.8877 1.99429 11.5847 1.81989C11.2816 1.64553 10.9614 1.56974 10.5983 1.53406ZM8.00065 10.3333C9.28932 10.3333 10.334 9.28867 10.334 8C10.334 6.71133 9.28932 5.66667 8.00065 5.66667C6.71198 5.66667 5.66732 6.71133 5.66732 8C5.66732 9.28867 6.71198 10.3333 8.00065 10.3333Z" fill="white"/>
</g>
<defs>
<clipPath id="clip0_1_254">
<rect width="16" height="16" fill="white"/>
</clipPath>
</defs>
</svg>
