<svg width="16" height="16" viewBox="0 0 16 16" fill="none" xmlns="http://www.w3.org/2000/svg">
<g clip-path="url(#clip0_1_251)">
<path fill-rule="evenodd" clip-rule="evenodd" d="M4.76829 1.91413C4.83181 1.97343 4.83181 2.07181 4.83181 2.26857V4.66634C4.83181 4.94248 5.05567 5.16634 5.33181 5.16634C5.60795 5.16634 5.83181 4.94248 5.83181 4.66634V2.23221C5.83181 2.04449 5.83181 1.95063 5.8903 1.89207C5.94879 1.8335 6.04241 1.83339 6.22964 1.83316C6.35821 1.83301 6.49029 1.83301 6.62599 1.83301H6.62989H9.36756C10.4387 1.833 11.2846 1.83299 11.9581 1.90815C12.6486 1.98519 13.2158 2.14609 13.7037 2.50778C14.0391 2.75642 14.3294 3.06421 14.5624 3.41639C14.9926 4.06677 15.1194 4.85523 15.1647 5.89729C15.165 5.90452 15.1652 5.91175 15.1652 5.91897V10.0804C15.1652 10.0876 15.165 10.0948 15.1647 10.1021C15.1194 11.1441 14.9926 11.9326 14.5624 12.5829C14.3294 12.9351 14.0391 13.2429 13.7037 13.4915C13.2158 13.8533 12.6486 14.0141 11.9581 14.0912C11.2846 14.1663 10.4388 14.1663 9.36763 14.1663H6.62993H6.62658C6.49067 14.1663 6.35839 14.1663 6.22963 14.1662C6.04241 14.1659 5.94879 14.1659 5.8903 14.1073C5.83181 14.0487 5.83181 13.9549 5.83181 13.7671V11.333C5.83181 11.0569 5.60795 10.833 5.33181 10.833C5.05567 10.833 4.83181 11.0569 4.83181 11.333V13.7308C4.83181 13.9275 4.83181 14.0259 4.76829 14.0852C4.70477 14.1445 4.60874 14.1379 4.41669 14.1247C4.28524 14.1156 4.15957 14.1046 4.0394 14.0912C3.34893 14.0141 2.78175 13.8533 2.29381 13.4915C1.95838 13.2429 1.66805 12.9351 1.43509 12.5829C1.00496 11.9327 0.878059 11.1443 0.832833 10.1024C0.811219 9.60467 1.23055 9.27047 1.64201 9.27047C2.26327 9.27047 2.8148 8.72874 2.8148 7.99967C2.8148 7.27061 2.26327 6.72887 1.64201 6.72887C1.23055 6.72887 0.811219 6.39467 0.832833 5.89694C0.878059 4.85505 1.00496 4.06669 1.43509 3.41639C1.66805 3.06421 1.95838 2.75642 2.29381 2.50778C2.78175 2.14609 3.34893 1.98519 4.0394 1.90815C4.15957 1.89474 4.28524 1.88372 4.41669 1.87467C4.60874 1.86145 4.70477 1.85483 4.76829 1.91413ZM10.4584 6.06669C10.3282 5.80306 10.07 5.49967 9.66416 5.49967C9.25883 5.49967 9.00009 5.80241 8.86896 6.06544L8.86849 6.06637L8.54103 6.72667L7.96196 6.82367C7.66929 6.87287 7.31956 7.03574 7.20043 7.41187C7.08196 7.78601 7.27143 8.12041 7.47956 8.33027L7.93409 8.78854L7.80523 9.35034C7.73923 9.63794 7.72116 10.0903 8.08176 10.3556C8.44476 10.6227 8.87169 10.4663 9.12496 10.3148L9.66436 9.99281L10.204 10.3149C10.4559 10.4649 10.884 10.6239 11.2476 10.3565C11.6092 10.0907 11.589 9.63674 11.5237 9.35074L11.3947 8.78854L11.848 8.33147L11.8486 8.33081C12.0581 8.12074 12.2484 7.78587 12.1288 7.41094C12.009 7.03527 11.6592 6.87281 11.3671 6.82374L10.7856 6.72634L10.4588 6.06731L10.4584 6.06669Z" fill="url(#paint0_linear_1_251)"/>
</g>
<defs>
<linearGradient id="paint0_linear_1_251" x1="7.99859" y1="1.83301" x2="7.99859" y2="14.1663" gradientUnits="userSpaceOnUse">
<stop stop-color="#E1B651"/>
<stop offset="1" stop-color="#5173E1"/>
</linearGradient>
<clipPath id="clip0_1_251">
<rect width="16" height="16" fill="white"/>
</clipPath>
</defs>
</svg>
